<svg width="20" height="20" viewBox="0 0 20 20" fill="none" xmlns="http://www.w3.org/2000/svg">
<path d="M16.668 10.0003C16.668 6.31843 13.6832 3.33366 10.0013 3.33366C6.3194 3.33366 3.33464 6.31843 3.33464 10.0003C3.33464 13.6822 6.3194 16.667 10.0013 16.667C13.6832 16.667 16.668 13.6822 16.668 10.0003ZM10.0013 7.91699C10.4615 7.91699 10.8346 8.29009 10.8346 8.75033V13.3337H11.668V15.0003H8.33464V13.3337H9.16797V9.58366H8.33464V7.91699H10.0013ZM18.3346 10.0003C18.3346 14.6027 14.6037 18.3337 10.0013 18.3337C5.39893 18.3337 1.66797 14.6027 1.66797 10.0003C1.66797 5.39795 5.39893 1.66699 10.0013 1.66699C14.6037 1.66699 18.3346 5.39795 18.3346 10.0003Z" fill="#1E2939"/>
<path d="M10.0013 6.87533C10.5766 6.87533 11.043 6.40896 11.043 5.83366C11.043 5.25836 10.5766 4.79199 10.0013 4.79199C9.42601 4.79199 8.95964 5.25836 8.95964 5.83366C8.95964 6.40896 9.42601 6.87533 10.0013 6.87533Z" fill="#1E2939"/>
</svg>
