<svg width="24" height="24" viewBox="0 0 24 24" fill="none" xmlns="http://www.w3.org/2000/svg">
<path d="M8.5 18H20.5V16H8.5V18ZM8.5 13H20.5V11H8.5V13ZM8.5 6V8H20.5V6H8.5Z" fill="#030712"/>
<path d="M6.5 7C6.5 7.82843 5.82843 8.5 5 8.5C4.17157 8.5 3.5 7.82843 3.5 7C3.5 6.17157 4.17157 5.5 5 5.5C5.82843 5.5 6.5 6.17157 6.5 7Z" fill="#030712"/>
<path d="M6.5 12C6.5 12.8284 5.82843 13.5 5 13.5C4.17157 13.5 3.5 12.8284 3.5 12C3.5 11.1716 4.17157 10.5 5 10.5C5.82843 10.5 6.5 11.1716 6.5 12Z" fill="#030712"/>
<path d="M6.5 17C6.5 17.8284 5.82843 18.5 5 18.5C4.17157 18.5 3.5 17.8284 3.5 17C3.5 16.1716 4.17157 15.5 5 15.5C5.82843 15.5 6.5 16.1716 6.5 17Z" fill="#030712"/>
</svg>
