<svg width="112" height="112" viewBox="0 0 112 112" fill="none" xmlns="http://www.w3.org/2000/svg">
<path d="M55.999 6.90039C63.5573 6.90051 69.632 10.4554 80.9473 16.9883C86.6274 20.2677 91.0078 22.7934 93.9521 25.0215C96.8431 27.2091 98.7939 29.4274 98.7939 32.2002V78.8672C98.7938 81.64 96.843 83.8583 93.9521 86.0459C91.0078 88.2739 86.6274 90.7997 80.9473 94.0791C69.632 100.612 63.5573 104.166 55.999 104.166C48.4406 104.166 42.3652 100.612 31.0498 94.0791C25.3697 90.7997 20.9893 88.2739 18.0449 86.0459C15.1541 83.8583 13.2032 81.6399 13.2031 78.8672V32.2002C13.2032 29.4274 15.1541 27.2091 18.0449 25.0215C20.9893 22.7935 25.3698 20.2676 31.0498 16.9883C42.3652 10.4553 48.4406 6.90039 55.999 6.90039Z" fill="#D1D5DC" stroke="#D1D5DC" stroke-width="2.8"/>
<path d="M97.3862 57.3999H14.582V78.8666L14.6036 78.8666C14.6036 82.9671 20.319 86.2669 31.75 92.8666C43.1809 99.4662 48.8964 102.766 55.9987 102.766C63.101 102.766 68.8164 99.4662 80.2474 92.8666C91.6784 86.2669 97.3938 82.9671 97.3938 78.8666C97.3938 78.78 97.3913 78.6938 97.3862 78.6079V57.3999Z" fill="url(#paint0_linear_7101_40508)"/>
<path d="M31.7499 43.4C43.1809 36.8003 48.8964 33.5005 55.9987 33.5005C63.1009 33.5005 68.8164 36.8003 80.2474 43.4C91.6783 49.9996 97.3938 53.2995 97.3938 57.4C97.3938 61.5005 91.6783 64.8003 80.2474 71.4C68.8164 77.9996 63.1009 81.2995 55.9987 81.2995C48.8964 81.2995 43.1809 77.9996 31.7499 71.4C20.319 64.8003 14.6035 61.5005 14.6035 57.4C14.6035 53.2995 20.319 49.9996 31.7499 43.4Z" fill="#99A1AF"/>
<path d="M34.5234 76.9995C34.5236 76.4844 34.8849 76.2754 35.3311 76.5327L36.5439 77.2329C36.9904 77.4906 37.3525 78.1178 37.3525 78.6333V91.6997C37.3525 92.2151 36.9903 92.4242 36.5439 92.1665L35.3311 91.4663C34.8849 91.2085 34.5236 90.5821 34.5234 90.0669V76.9995ZM29.8555 74.5503C29.8555 74.0349 30.2167 73.8259 30.6631 74.0835L31.876 74.7837C32.3222 75.0415 32.6834 75.6678 32.6836 76.1831V89.2505C32.6834 89.7657 32.3223 89.974 31.876 89.7163L30.6631 89.0171C30.2167 88.7594 29.8555 88.1322 29.8555 87.6167V74.5503ZM25.1914 71.8667C25.1915 71.3513 25.5536 71.1422 26 71.3999L27.2119 72.1001C27.6583 72.3578 28.0205 72.985 28.0205 73.5005V86.5669C28.0205 87.0823 27.6583 87.2914 27.2119 87.0337L26 86.3335C25.5536 86.0758 25.1914 85.4486 25.1914 84.9331V71.8667ZM20.5234 68.8335C20.5234 68.3181 20.8848 68.1092 21.3311 68.3667L22.5439 69.0669C22.9902 69.3246 23.3524 69.951 23.3525 70.4663V83.5337C23.3524 84.0489 22.9902 84.2572 22.5439 83.9995L21.3311 83.3003C20.8847 83.0425 20.5234 82.4153 20.5234 81.8999V68.8335Z" fill="#99A1AF"/>
<path d="M97.3862 32.2H14.582V54.1333L14.6036 54.1333C14.6036 58.2338 20.319 61.5336 31.75 68.1333C43.1809 74.7329 48.8964 78.0328 55.9987 78.0328C63.101 78.0328 68.8165 74.7329 80.2474 68.1333C91.6784 61.5336 97.3938 58.2338 97.3938 54.1333C97.3938 54.0467 97.3913 53.9605 97.3862 53.8746V32.2Z" fill="url(#paint1_linear_7101_40508)"/>
<path d="M31.7499 18.1998C43.1809 11.6001 48.8964 8.30029 55.9987 8.30029C63.1009 8.30029 68.8164 11.6001 80.2474 18.1998C91.6783 24.7995 97.3938 28.0993 97.3938 32.1998C97.3938 36.3003 91.6783 39.6001 80.2474 46.1998C68.8164 52.7995 63.1009 56.0993 55.9987 56.0993C48.8964 56.0993 43.1809 52.7995 31.7499 46.1998C20.319 39.6001 14.6035 36.3003 14.6035 32.1998C14.6035 28.0993 20.319 24.7995 31.7499 18.1998Z" fill="url(#paint2_linear_7101_40508)"/>
<g clip-path="url(#clip0_7101_40508)">
<path fill-rule="evenodd" clip-rule="evenodd" d="M42.666 32.0068C42.666 36.7932 46.4438 40.6666 51.0992 40.6666H60.9009C65.5575 40.6666 69.3327 36.7932 69.3327 32.0068C69.3327 27.2205 65.5575 23.3333 60.9009 23.3333H51.0992C46.4438 23.3333 42.666 27.2205 42.666 32.0068ZM66.1417 32.0068C66.1417 35.1055 63.699 37.6094 60.6829 37.6094H51.3158C48.3011 37.6094 45.857 35.1055 45.857 32.0068C45.857 28.9081 48.3011 26.3905 51.3158 26.3905H60.6829C63.699 26.3905 66.1417 28.9081 66.1417 32.0068Z" fill="#F80000"/>
</g>
<defs>
<linearGradient id="paint0_linear_7101_40508" x1="97.3938" y1="83.8012" x2="14.582" y2="83.8012" gradientUnits="userSpaceOnUse">
<stop stop-color="#E5E7EB"/>
<stop offset="0.398949" stop-color="#F9FAFB"/>
<stop offset="0.607454" stop-color="#D1D5DC"/>
<stop offset="1" stop-color="#E5E7EB"/>
</linearGradient>
<linearGradient id="paint1_linear_7101_40508" x1="97.3938" y1="58.8728" x2="14.582" y2="58.8728" gradientUnits="userSpaceOnUse">
<stop stop-color="#E5E7EB"/>
<stop offset="0.398949" stop-color="#F9FAFB"/>
<stop offset="0.607454" stop-color="#D1D5DC"/>
<stop offset="1" stop-color="#E5E7EB"/>
</linearGradient>
<linearGradient id="paint2_linear_7101_40508" x1="14.5545" y1="8.32859" x2="17.7611" y2="60.9749" gradientUnits="userSpaceOnUse">
<stop stop-color="#F9FAFB"/>
<stop offset="1" stop-color="#E5E7EB"/>
</linearGradient>
<clipPath id="clip0_7101_40508">
<rect width="32" height="32" fill="white" transform="translate(40 16)"/>
</clipPath>
</defs>
</svg>
