<svg width="20" height="20" viewBox="0 0 20 20" fill="none" xmlns="http://www.w3.org/2000/svg">
<path d="M2.5 16.6662V10.8329L5.3125 13.0829C5.6875 13.3884 6.10764 13.5065 6.57292 13.4371C7.03819 13.3676 7.40972 13.1384 7.6875 12.7496L9.5 10.2704C9.63889 10.0759 9.82292 9.96136 10.0521 9.92664C10.2812 9.89192 10.4931 9.95094 10.6875 10.1037L17.5 15.4371V16.6662H2.5Z" fill="#FF8903"/>
<path d="M17.5 13.3331L11.0208 8.27059C10.6458 7.97893 10.2257 7.86434 9.76042 7.92684C9.29514 7.98934 8.92361 8.21504 8.64583 8.60393L6.85417 11.0623C6.71528 11.2567 6.53125 11.3713 6.30208 11.406C6.07292 11.4407 5.86111 11.3817 5.66667 11.2289L2.5 8.74976V7.49976C2.5 7.15254 2.65278 6.90254 2.95833 6.74976C3.26389 6.59698 3.55556 6.62476 3.83333 6.83309L5.83333 8.33309L8.97917 3.93726C9.25694 3.54837 9.63194 3.3192 10.1042 3.24976C10.5764 3.18031 11 3.29837 11.375 3.60393L14.1667 5.83309H15.8333C16.2917 5.83309 16.684 5.99629 17.0104 6.32268C17.3368 6.64906 17.5 7.04143 17.5 7.49976V13.3331Z" fill="#FDC700"/>
</svg>
