<svg width="24" height="24" viewBox="0 0 24 24" fill="none" xmlns="http://www.w3.org/2000/svg">
<g clip-path="url(#clip0_7189_76260)">
<path d="M16 10.4999C16 7.46231 13.5376 4.99988 10.5 4.99988C7.46243 4.99988 5 7.46231 5 10.4999C5 13.5374 7.46243 15.9999 10.5 15.9999C12.0191 15.9999 13.3923 15.3849 14.3887 14.3885C15.3851 13.3922 16 12.0189 16 10.4999ZM18 10.4999C18 12.2097 17.4251 13.7854 16.4619 15.0468L20.707 19.2928L19.293 20.7069L15.0469 16.4618C13.7856 17.4249 12.2098 17.9999 10.5 17.9999C6.35786 17.9999 3 14.642 3 10.4999C3 6.35774 6.35786 2.99988 10.5 2.99988C14.6421 2.99988 18 6.35774 18 10.4999Z" fill="#1E2939"/>
</g>
<defs>
<clipPath id="clip0_7189_76260">
<rect width="24" height="24" fill="white"/>
</clipPath>
</defs>
</svg>
