<svg width="24" height="24" viewBox="0 0 24 24" fill="none" xmlns="http://www.w3.org/2000/svg">
<path d="M14.3662 3.11528C14.6666 2.95723 15.0265 2.96246 15.3223 3.12895L18.165 4.72856L18.2744 4.79985C18.516 4.98097 18.6647 5.26385 18.6738 5.57035L18.751 8.16703L21.0225 9.54008C21.322 9.72112 21.5048 10.0456 21.5049 10.3955V13.6006C21.5049 13.9511 21.3216 14.2761 21.0215 14.4571L18.751 15.8252L18.6719 18.4239C18.6611 18.7731 18.4682 19.0917 18.1641 19.2637L15.3242 20.8702C15.0281 21.0377 14.6673 21.0432 14.3662 20.8848L11.998 19.6387L9.63086 20.8848C9.33049 21.0428 8.97057 21.0376 8.6748 20.8711L5.83203 19.2715C5.52661 19.0996 5.33365 18.7801 5.32324 18.4297L5.24512 15.8321L2.97363 14.459C2.67392 14.278 2.4903 13.9537 2.49023 13.6036V10.3985C2.49023 10.0481 2.6736 9.72304 2.97363 9.54203L5.24414 8.17289L5.32422 5.57524L5.33691 5.44535C5.38523 5.14816 5.56586 4.8858 5.83203 4.73539L8.67285 3.12895L8.78711 3.07426C9.05855 2.96336 9.3676 2.97676 9.63086 3.11528L11.998 4.36039L14.3662 3.11528ZM12.4639 6.37602C12.1725 6.52914 11.8245 6.52919 11.5332 6.37602L9.18262 5.13871L7.30566 6.19926L7.22656 8.77836C7.21612 9.11772 7.0339 9.4292 6.74316 9.60453L4.49023 10.9629V13.0391L6.74609 14.4024L6.85059 14.4737C7.08023 14.6555 7.21969 14.9315 7.22852 15.2286L7.30469 17.8047L9.18066 18.8614L11.5332 17.6241L11.6445 17.5743C11.9104 17.4735 12.2088 17.49 12.4639 17.6241L14.8145 18.8604L16.6895 17.7998L16.7686 15.2207L16.7812 15.0948C16.8271 14.8056 16.9976 14.548 17.252 14.3946L19.5049 13.0362V10.959L17.251 9.5977C16.9603 9.42208 16.7786 9.111 16.7686 8.77153L16.6914 6.19438L14.8154 5.13774L12.4639 6.37602ZM13.999 12C13.999 10.8956 13.1034 10.0003 11.999 10C10.8945 10 9.99902 10.8955 9.99902 12C9.99902 13.1046 10.8945 14 11.999 14C13.1034 13.9998 13.999 13.1045 13.999 12ZM15.999 12C15.999 14.209 14.208 15.9998 11.999 16C9.78988 16 7.99902 14.2092 7.99902 12C7.99902 9.7909 9.78988 8.00004 11.999 8.00004C14.208 8.00028 15.999 9.79105 15.999 12Z" fill="#1E2939"/>
</svg>
