<svg width="24" height="24" viewBox="0 0 24 24" fill="none" xmlns="http://www.w3.org/2000/svg">
<path d="M6.2 19.9999C5.58333 19.9999 5.0625 19.7874 4.6375 19.3624C4.2125 18.9374 4 18.4165 4 17.7999V4.09988C4 3.61655 4.225 3.27905 4.675 3.08738C5.125 2.89572 5.51667 2.96655 5.85 3.29988L8.1 5.54988L6.75 6.89988L7.45 7.59988L8.8 6.24988L11.4 8.84988L10.05 10.1999L10.75 10.8999L12.1 9.54988L14.7 12.1499L13.35 13.4999L14.05 14.1999L15.4 12.8499L18 15.4499L16.65 16.7999L17.35 17.4999L18.7 16.1499L20.7 18.1499C21.0333 18.4832 21.1042 18.8749 20.9125 19.3249C20.7208 19.7749 20.3833 19.9999 19.9 19.9999H6.2ZM7 16.9999H15.3L7 8.69988V16.9999Z" fill="#7C86FF"/>
</svg>
