<svg width="28" height="28" viewBox="0 0 28 28" fill="none" xmlns="http://www.w3.org/2000/svg">
<path d="M13.7489 9.95755L7.34283 1.75314C7.32739 1.73503 7.30725 1.72498 7.28376 1.72498H1.28306L1.36226 1.82758L8.46376 10.9886C8.4792 11.0068 8.49934 11.0168 8.52283 11.0168H12.8775C12.9647 11.0168 13.0137 11.114 12.9594 11.1838L1.31169 26.1724L1.23047 26.275H7.55785C7.57866 26.2743 7.59611 26.2649 7.60954 26.2495L14.0103 17.6289C14.0385 17.5954 14.0875 17.5954 14.113 17.6289L20.4641 26.2495C20.4768 26.2649 20.4949 26.275 20.5151 26.275H26.7805L26.708 26.1724L17.4192 13.9201C17.401 13.8973 17.401 13.8309 17.4192 13.8074L26.4162 1.82758L26.4927 1.72498H20.3978C20.3777 1.72498 20.3596 1.73503 20.3468 1.75046L14.0758 9.95219C13.996 10.0602 13.8349 10.0622 13.7496 9.95755H13.7489Z" fill="#121212"/>
</svg>
